HIERARCHY
ROOT Root
{
	OFFSET 0.00000 0.00000 0.00000
	CHANNELS 6 Xposition Yposition Zposition Zrotation Xrotation Yrotation
	JOINT Hips
	{
		OFFSET 0 0 0	
		CHANNELS 3 Zrotation Xrotation Yrotation
		JOINT Spine
		{
			OFFSET 0 4 0	
			CHANNELS 3 Zrotation Xrotation Yrotation
			JOINT Spine1
			{
				OFFSET 0 19.4 0	
				CHANNELS 3 Zrotation Xrotation Yrotation
				JOINT Spine2
				{
					OFFSET 0 16.6 0	
					CHANNELS 3 Zrotation Xrotation Yrotation
					JOINT LeftCollar
					{
						OFFSET 0 10 0	
						CHANNELS 3 Zrotation Xrotation Yrotation
						JOINT LeftArm
						{
							OFFSET 15.6 -2 3	
							CHANNELS 3 Zrotation Xrotation Yrotation
							JOINT LeftForeArm
							{
								OFFSET 3.5 -27 -1	
								CHANNELS 3 Zrotation Xrotation Yrotation
								JOINT LeftHand
								{
									OFFSET 1 -27 1	
									CHANNELS 3 Zrotation Xrotation Yrotation
									End Site
									{
										OFFSET 0 -15 0
									}
								}
							}
						}
					}
					JOINT RightCollar
					{
						OFFSET 0 10 0	
						CHANNELS 3 Zrotation Xrotation Yrotation
						JOINT RightArm
						{
							OFFSET -15.6 -2 3	
							CHANNELS 3 Zrotation Xrotation Yrotation
							JOINT RightForeArm
							{
								OFFSET -3.5 -27 -1	
								CHANNELS 3 Zrotation Xrotation Yrotation
								JOINT RightHand
								{
									OFFSET -1 -27 1	
									CHANNELS 3 Zrotation Xrotation Yrotation
									End Site
									{
										OFFSET 0 -15 0
									}
								}
							}
						}
					}
					JOINT Neck
					{
						OFFSET 0 10 0	
						CHANNELS 3 Zrotation Xrotation Yrotation
						JOINT Head
						{
							OFFSET 0 12.7 3	
							CHANNELS 3 Zrotation Xrotation Yrotation
							End Site
							{
								OFFSET 0 12.7 3
							}
						}
					}
				}
			}
		}
	}
	JOINT LeftHip
	{
		OFFSET 0 0 0	
		CHANNELS 3 Zrotation Xrotation Yrotation
		JOINT LeftUpLeg
		{
			OFFSET 8.8 -6 0	
			CHANNELS 3 Zrotation Xrotation Yrotation
			JOINT LeftLeg
			{
				OFFSET 0 -39 2	
				CHANNELS 3 Zrotation Xrotation Yrotation
				JOINT LeftFoot
				{
					OFFSET 0 -43 -2	
					CHANNELS 3 Zrotation Xrotation Yrotation
					JOINT LeftFootFront
					{
						OFFSET 0 -7 8.5	
						CHANNELS 3 Zrotation Xrotation Yrotation
						End Site
						{
							OFFSET 0 -0.5 9
						}
					}
				}
				JOINT LeftHeel
				{
					OFFSET 0 -43 -2	
					CHANNELS 3 Zrotation Xrotation Yrotation
					End Site
					{
						OFFSET 0 -7.5 -5
					}
				}
			}
		}
	}
	JOINT RightHip
	{
		OFFSET 0 0 0	
		CHANNELS 3 Zrotation Xrotation Yrotation
		JOINT RightUpLeg
		{
			OFFSET -8.8 -6 0	
			CHANNELS 3 Zrotation Xrotation Yrotation
			JOINT RightLeg
			{
				OFFSET 0 -39 2	
				CHANNELS 3 Zrotation Xrotation Yrotation
				JOINT RightFoot
				{
					OFFSET 0 -43 -2	
					CHANNELS 3 Zrotation Xrotation Yrotation
					JOINT RightFootFront
					{
						OFFSET 0 -7 8.5	
						CHANNELS 3 Zrotation Xrotation Yrotation
						End Site
						{
							OFFSET 0 -0.5 9
						}
					}
				}
				JOINT RightHeel
				{
					OFFSET 0 -43 -2	
					CHANNELS 3 Zrotation Xrotation Yrotation
					End Site
					{
						OFFSET 0 -7.5 -5
					}
				}
			}
		}
	}
}
MOTION
Frames: 19
Frame Time: 0.025
0 96.98 0 -0 0 -0 1.9076 -6.4538 -3.9802 -0.68278 -7.761 1.318 -0.68278 -7.761 1.318 -0.585 -6.5183 1.1122 -0 0 -0 0.042333 10.851 6.5785 11.421 2.3386 12.583 -0 0 -0 -0 0 -0 0.37427 10.687 -12.938 6.8565 -0.31174 0.97315 -0 0 -0 19.464 -5.6288 11.603 19.464 -5.6288 11.603 1.9076 -6.4538 -3.9802 -1.4387 5.4159 5.7163 -1.7642 4.6531 -1.771 -0 0 -0 -0 0 -0 -0 0 -0 1.9076 -6.4538 -3.9802 -3.3816 5.6817 -1.0072 -1.0917 6.0241 -0.66911 -0 0 -0 -0 0 -0 -0 0 -0 
0 96.98 0 -0 0 -0 1.9168 -6.4583 -3.9972 -0.68556 -7.7521 1.3358 -0.68556 -7.7521 1.3358 -0.58748 -6.5107 1.1271 -0 0 -0 0.054285 10.829 6.5462 11.353 2.3471 12.592 -0 0 -0 -0 0 -0 0.36445 10.652 -12.923 6.8722 -0.29139 0.96828 -0 0 -0 19.47 -5.6299 11.602 19.47 -5.6299 11.602 1.9168 -6.4583 -3.9972 -1.4458 5.4043 5.7435 -1.7674 4.6668 -1.7727 -0 0 -0 -0 0 -0 -0 0 -0 1.9168 -6.4583 -3.9972 -3.3922 5.6683 -1.0022 -1.0944 6.042 -0.6586 -0 0 -0 -0 0 -0 -0 0 -0 
0 96.98 0 -0 0 -0 1.9291 -6.4626 -4.0227 -0.6894 -7.7373 1.3613 -0.6894 -7.7373 1.3613 -0.59092 -6.4983 1.1485 -0 0 -0 0.069199 10.792 6.478 11.268 2.3601 12.631 -0 0 -0 -0 0 -0 0.34836 10.59 -12.911 6.8933 -0.26158 0.97086 -0 0 -0 19.482 -5.6378 11.598 19.482 -5.6378 11.598 1.9291 -6.4626 -4.0227 -1.4547 5.3851 5.7861 -1.7723 4.6862 -1.7778 -0 0 -0 -0 0 -0 -0 0 -0 1.9291 -6.4626 -4.0227 -3.4071 5.648 -0.98915 -1.0977 6.0658 -0.64946 -0 0 -0 -0 0 -0 -0 0 -0 
0 96.98 0 -0 0 -0 1.9403 -6.4641 -4.0519 -0.69395 -7.7201 1.3878 -0.69395 -7.7201 1.3878 -0.59495 -6.4838 1.1708 -0 0 -0 0.084609 10.745 6.3789 11.19 2.3829 12.727 -0 0 -0 -0 0 -0 0.33493 10.515 -12.911 6.9076 -0.23357 0.99329 -0 0 -0 19.5 -5.6556 11.586 19.5 -5.6557 11.586 1.9403 -6.4641 -4.0519 -1.4642 5.3641 5.8338 -1.7764 4.7044 -1.786 -0 0 -0 -0 0 -0 -0 0 -0 1.9403 -6.4641 -4.0519 -3.4226 5.6266 -0.97066 -1.1 6.0864 -0.63981 -0 0 -0 -0 0 -0 -0 0 -0 
0 96.98 0 -0 0 -0 1.9531 -6.4596 -4.0816 -0.70129 -7.7027 1.4123 -0.70129 -7.7027 1.4123 -0.60131 -6.4691 1.1915 -0 0 -0 0.10304 10.689 6.273 11.138 2.4115 12.839 -0 0 -0 -0 0 -0 0.32801 10.431 -12.922 6.913 -0.21369 1.032 -0 0 -0 19.52 -5.684 11.57 19.52 -5.684 11.57 1.9531 -6.4596 -4.0816 -1.4768 5.3395 5.8867 -1.7783 4.7205 -1.8021 -0 0 -0 -0 0 -0 -0 0 -0 1.9531 -6.4596 -4.0816 -3.4404 5.6026 -0.95176 -1.1008 6.1023 -0.62382 -0 0 -0 -0 0 -0 -0 0 -0 
0 96.98 0 -0 0 -0 1.9622 -6.457 -4.1003 -0.70863 -7.6867 1.4259 -0.70863 -7.6867 1.4259 -0.60757 -6.4557 1.2029 -0 0 -0 0.12154 10.636 6.1934 11.115 2.4413 12.915 -0 0 -0 -0 0 -0 0.31777 10.353 -12.925 6.9154 -0.20515 1.0633 -0 0 -0 19.54 -5.7112 11.555 19.54 -5.7112 11.555 1.9622 -6.457 -4.1003 -1.4821 5.3188 5.9299 -1.7819 4.7366 -1.8224 -0 0 -0 -0 0 -0 -0 0 -0 1.9622 -6.457 -4.1003 -3.4527 5.5832 -0.94427 -1.1016 6.1159 -0.60546 -0 0 -0 -0 0 -0 -0 0 -0 
0 96.98 0 -0 0 -0 1.9691 -6.457 -4.1136 -0.71374 -7.6746 1.4308 -0.71374 -7.6746 1.4308 -0.61188 -6.4455 1.2071 -0 0 -0 0.13865 10.593 6.1442 11.09 2.4856 12.995 -0 0 -0 -0 0 -0 0.29816 10.289 -12.912 6.9161 -0.20981 1.0714 -0 0 -0 19.557 -5.73 11.545 19.557 -5.7299 11.545 1.9691 -6.457 -4.1136 -1.4823 5.301 5.9607 -1.789 4.7532 -1.838 -0 0 -0 -0 0 -0 -0 0 -0 1.9691 -6.457 -4.1136 -3.46 5.5686 -0.94063 -1.1034 6.1262 -0.5922 -0 0 -0 -0 0 -0 -0 0 -0 
0 96.98 0 -0 0 -0 1.9773 -6.4578 -4.128 -0.71691 -7.6655 1.4337 -0.71692 -7.6655 1.4337 -0.61456 -6.4378 1.2095 -0 0 -0 0.15525 10.554 6.1021 11.055 2.5464 13.103 -0 0 -0 -0 0 -0 0.27484 10.237 -12.886 6.9119 -0.22735 1.063 -0 0 -0 19.569 -5.7428 11.539 19.569 -5.7428 11.539 1.9773 -6.4578 -4.128 -1.4861 5.2845 5.9767 -1.7972 4.7664 -1.8391 -0 0 -0 -0 0 -0 -0 0 -0 1.9773 -6.4578 -4.128 -3.4657 5.5582 -0.93273 -1.1064 6.1297 -0.58584 -0 0 -0 -0 0 -0 -0 0 -0 
0 96.98 0 -0 0 -0 1.987 -6.4614 -4.1433 -0.72005 -7.653 1.4372 -0.72005 -7.653 1.4372 -0.6172 -6.4273 1.2125 -0 0 -0 0.17617 10.508 6.0457 11.028 2.6158 13.219 -0 0 -0 -0 0 -0 0.25632 10.186 -12.849 6.8992 -0.25258 1.0503 -0 0 -0 19.583 -5.7574 11.537 19.583 -5.7574 11.537 1.987 -6.4614 -4.1433 -1.4966 5.273 5.9855 -1.8038 4.7729 -1.8326 -0 0 -0 -0 0 -0 -0 0 -0 1.987 -6.4614 -4.1433 -3.4723 5.555 -0.92659 -1.1102 6.1267 -0.57778 -0 0 -0 -0 0 -0 -0 0 -0 
0 96.98 0 -0 0 -0 1.9974 -6.4677 -4.1603 -0.72278 -7.6352 1.4412 -0.72278 -7.6351 1.4412 -0.6195 -6.4124 1.2159 -0 0 -0 0.19789 10.454 5.9771 11.003 2.6889 13.336 -0 0 -0 -0 0 -0 0.23877 10.126 -12.8 6.882 -0.27574 1.0389 -0 0 -0 19.6 -5.7757 11.543 19.6 -5.7757 11.543 1.9974 -6.4677 -4.1603 -1.5107 5.2648 6.005 -1.8067 4.7793 -1.8339 -0 0 -0 -0 0 -0 -0 0 -0 1.9974 -6.4677 -4.1603 -3.4822 5.5559 -0.92726 -1.1146 6.1218 -0.56244 -0 0 -0 -0 0 -0 -0 0 -0 
0 96.98 0 -0 0 -0 2.0063 -6.4787 -4.1775 -0.72346 -7.613 1.4438 -0.72346 -7.613 1.4438 -0.62006 -6.3938 1.218 -0 0 -0 0.21533 10.396 5.9049 10.975 2.7674 13.461 -0 0 -0 -0 0 -0 0.21694 10.06 -12.746 6.8642 -0.29043 1.0325 -0 0 -0 19.62 -5.7947 11.555 19.62 -5.7947 11.555 2.0063 -6.4787 -4.1775 -1.5217 5.2608 6.0335 -1.81 4.7891 -1.8441 -0 0 -0 -0 0 -0 -0 0 -0 2.0063 -6.4787 -4.1775 -3.4921 5.557 -0.9312 -1.1209 6.1218 -0.54602 -0 0 -0 -0 0 -0 -0 0 -0 
0 96.98 0 -0 0 -0 2.0119 -6.4935 -4.1934 -0.72226 -7.5907 1.4448 -0.72226 -7.5907 1.4448 -0.61903 -6.375 1.2189 -0 0 -0 0.23187 10.339 5.8285 10.952 2.8558 13.589 -0 0 -0 -0 0 -0 0.19316 9.9959 -12.699 6.845 -0.29832 1.0422 -0 0 -0 19.641 -5.8099 11.568 19.641 -5.8099 11.568 2.0119 -6.4935 -4.1934 -1.5296 5.2594 6.0515 -1.8153 4.8017 -1.8471 -0 0 -0 -0 0 -0 -0 0 -0 2.0119 -6.4935 -4.1934 -3.4983 5.5553 -0.93073 -1.1295 6.1285 -0.53756 -0 0 -0 -0 0 -0 -0 0 -0 
0 96.98 0 -0 0 -0 2.0162 -6.5084 -4.2072 -0.7212 -7.571 1.4443 -0.7212 -7.571 1.4443 -0.6181 -6.3585 1.2185 -0 0 -0 0.25285 10.282 5.7464 10.942 2.9555 13.72 -0 0 -0 -0 0 -0 0.17023 9.9405 -12.666 6.8287 -0.30366 1.0748 -0 0 -0 19.661 -5.8195 11.578 19.661 -5.8195 11.578 2.0162 -6.5084 -4.2072 -1.5372 5.2552 6.0456 -1.8253 4.8156 -1.8318 -0 0 -0 -0 0 -0 -0 0 -0 2.0162 -6.5084 -4.2072 -3.5038 5.5515 -0.92412 -1.1369 6.1358 -0.53859 -0 0 -0 -0 0 -0 -0 0 -0 
0 96.98 0 -0 0 -0 2.0202 -6.5207 -4.218 -0.72166 -7.555 1.4403 -0.72166 -7.555 1.4403 -0.61843 -6.345 1.2151 -0 0 -0 0.27839 10.231 5.6761 10.951 3.0539 13.827 -0 0 -0 -0 0 -0 0.14888 9.8978 -12.643 6.8288 -0.30581 1.1097 -0 0 -0 19.68 -5.8224 11.586 19.68 -5.8224 11.586 2.0202 -6.5207 -4.218 -1.5414 5.2455 6.0267 -1.8455 4.8311 -1.8157 -0 0 -0 -0 0 -0 -0 0 -0 2.0202 -6.5207 -4.218 -3.511 5.5475 -0.91578 -1.1401 6.14 -0.54248 -0 0 -0 -0 0 -0 -0 0 -0 
0 96.98 0 -0 0 -0 2.0233 -6.5282 -4.224 -0.72279 -7.5442 1.4305 -0.72279 -7.5442 1.4305 -0.61927 -6.3359 1.2068 -0 0 -0 0.29499 10.198 5.6625 11.006 3.1052 13.806 -0 0 -0 -0 0 -0 0.12415 9.8763 -12.62 6.8445 -0.31259 1.1382 -0 0 -0 19.7 -5.8172 11.592 19.7 -5.8172 11.592 2.0233 -6.5282 -4.224 -1.5418 5.2309 6.0089 -1.8726 4.8479 -1.8221 -0 0 -0 -0 0 -0 -0 0 -0 2.0233 -6.5282 -4.224 -3.5173 5.5421 -0.90872 -1.1398 6.142 -0.54574 -0 0 -0 -0 0 -0 -0 0 -0 
0 96.98 0 -0 0 -0 2.0248 -6.5346 -4.2235 -0.7246 -7.5352 1.415 -0.7246 -7.5352 1.415 -0.62064 -6.3284 1.1939 -0 0 -0 0.30248 10.175 5.6865 11.126 3.0744 13.624 -0 0 -0 -0 0 -0 0.091672 9.8779 -12.588 6.8761 -0.3297 1.1558 -0 0 -0 19.729 -5.806 11.583 19.729 -5.806 11.583 2.0248 -6.5346 -4.2235 -1.5413 5.2149 5.9874 -1.8981 4.8664 -1.8459 -0 0 -0 -0 0 -0 -0 0 -0 2.0248 -6.5346 -4.2235 -3.5183 5.5401 -0.89869 -1.1403 6.1428 -0.55593 -0 0 -0 -0 0 -0 -0 0 -0 
0 96.98 0 -0 0 -0 2.0241 -6.5469 -4.2149 -0.72897 -7.522 1.3991 -0.72897 -7.522 1.3991 -0.62414 -6.3173 1.1806 -0 0 -0 0.30275 10.151 5.7081 11.285 2.9861 13.408 -0 0 -0 -0 0 -0 0.058484 9.8985 -12.541 6.9186 -0.35214 1.1575 -0 0 -0 19.754 -5.8015 11.52 19.754 -5.8015 11.52 2.0241 -6.5469 -4.2149 -1.5399 5.2009 5.9503 -1.9176 4.887 -1.8602 -0 0 -0 -0 0 -0 -0 0 -0 2.0241 -6.5469 -4.2149 -3.5118 5.5462 -0.87855 -1.1436 6.1443 -0.58428 -0 0 -0 -0 0 -0 -0 0 -0 
0 96.98 0 -0 0 -0 2.023 -6.5631 -4.197 -0.73743 -7.5032 1.3894 -0.73743 -7.5032 1.3894 -0.63113 -6.3015 1.1724 -0 0 -0 0.2927 10.121 5.7114 11.454 2.8723 13.268 -0 0 -0 -0 0 -0 0.039439 9.9265 -12.468 6.9522 -0.36514 1.1438 -0 0 -0 19.704 -5.8331 11.342 19.704 -5.8331 11.342 2.023 -6.5631 -4.197 -1.5379 5.1863 5.8877 -1.9327 4.9087 -1.838 -0 0 -0 -0 0 -0 -0 0 -0 2.023 -6.5631 -4.197 -3.501 5.555 -0.85234 -1.1485 6.1479 -0.62734 -0 0 -0 -0 0 -0 -0 0 -0 
0 96.98 0 -0 0 -0 2.0241 -6.5759 -4.1707 -0.75184 -7.4819 1.3867 -0.75184 -7.4819 1.3867 -0.64316 -6.2836 1.1703 -0 0 -0 0.28096 10.076 5.7142 11.595 2.7818 13.245 -0 0 -0 -0 0 -0 0.04707 9.9406 -12.364 6.956 -0.34986 1.1241 -0 0 -0 19.454 -5.924 11.005 19.454 -5.924 11.005 2.0241 -6.5759 -4.1707 -1.5349 5.1649 5.8068 -1.9462 4.93 -1.7808 -0 0 -0 -0 0 -0 -0 0 -0 2.0241 -6.5759 -4.1707 -3.4913 5.5618 -0.83533 -1.1538 6.1491 -0.66775 -0 0 -0 -0 0 -0 -0 0 -0 
